<?xml version="1.0" encoding="UTF-8" standalone="no"?>
<!-- Created with Inkscape (http://www.inkscape.org/) -->

<svg
   width="210mm"
   height="297mm"
   viewBox="0 0 210 297"
   version="1.1"
   id="svg5"
   sodipodi:docname="Stork_silhouette.svg"
   inkscape:export-filename="/home/matan/Matan/Repos/controls_challenge/ukf_explanation_video/Stork_silhouette.png"
   inkscape:export-xdpi="96"
   inkscape:export-ydpi="96"
   inkscape:version="1.1.2 (0a00cf5339, 2022-02-04)"
   xmlns:inkscape="http://www.inkscape.org/namespaces/inkscape"
   xmlns:sodipodi="http://sodipodi.sourceforge.net/DTD/sodipodi-0.dtd"
   xmlns="http://www.w3.org/2000/svg"
   xmlns:svg="http://www.w3.org/2000/svg">
  <sodipodi:namedview
     id="namedview7"
     pagecolor="#ffffff"
     bordercolor="#000000"
     borderopacity="0.25"
     inkscape:pageshadow="2"
     inkscape:pageopacity="0"
     inkscape:pagecheckerboard="0"
     inkscape:document-units="mm"
     showgrid="false"
     inkscape:zoom="0.37593996"
     inkscape:cx="207.47994"
     inkscape:cy="658.34981"
     inkscape:window-width="1920"
     inkscape:window-height="1016"
     inkscape:window-x="0"
     inkscape:window-y="27"
     inkscape:window-maximized="1"
     inkscape:current-layer="layer1" />
  <defs
     id="defs2" />
  <g
     inkscape:label="Layer 1"
     inkscape:groupmode="layer"
     id="layer1">
    <path
       style="fill:#000000;stroke-width:0.198314"
       d="m 118.52533,238.76299 c 0.88337,-0.57152 2.55926,-4.78546 3.62678,-9.1194 0.10076,-0.40903 0.36847,-1.4276 0.59494,-2.26349 0.22648,-0.8359 0.41177,-1.70181 0.41177,-1.92423 0,-0.22243 0.08,-0.60941 0.17773,-0.85996 0.0978,-0.25054 0.27896,-1.08022 0.40265,-1.84373 0.29132,-1.79808 0.53533,-3.06657 0.89648,-4.66037 0.28622,-1.26307 0.28979,-1.22311 0.17755,1.98313 -0.20303,5.79978 -0.069,10.55511 0.32669,11.59601 0.11019,0.28983 0.20035,0.71777 0.20035,0.95098 0,0.63053 1.19282,4.3601 1.5102,4.72193 0.15105,0.1722 0.27462,0.40807 0.27462,0.52415 0,0.33445 0.60022,0.47554 0.8651,0.20335 0.46783,-0.48075 1.05998,-1.97968 1.70372,-4.31276 0.13543,-0.49082 0.32678,-1.04737 0.42522,-1.23677 0.0984,-0.1894 0.17899,-0.53601 0.17899,-0.77025 0,-0.23423 0.0815,-0.74858 0.18111,-1.143 0.0996,-0.3944 0.28245,-1.20793 0.40632,-1.80782 0.12387,-0.59991 0.30413,-1.4477 0.40058,-1.88399 0.19371,-0.87625 0.53882,-2.79088 0.69703,-3.86712 0.18288,-1.24387 0.48402,-3.4669 0.49028,-3.61923 0.004,-0.0818 0.0815,-0.14873 0.17373,-0.14873 0.0922,0 0.17301,1.11043 0.17963,2.46763 0.007,1.35721 0.0666,2.556 0.13339,2.66399 0.0668,0.108 0.21337,0.62621 0.32584,1.15159 0.55724,2.60301 0.99463,3.84113 1.91374,5.4173 0.60948,1.0452 1.50916,2.18146 1.72725,2.18146 0.44985,0 1.61001,-3.39134 1.89498,-5.5393 0.12399,-0.93454 0.26751,-1.96688 0.31894,-2.2941 0.21042,-1.33873 0.49052,-4.13211 0.68604,-6.84183 0.11412,-1.58155 0.27964,-3.6341 0.36782,-4.56121 l 0.16032,-1.68567 0.0477,1.38819 c 0.0262,0.76351 0.0433,1.83048 0.0382,2.37105 -0.005,0.54056 0.0824,1.0936 0.19474,1.22896 0.11234,0.13536 0.1801,0.45163 0.15059,0.70282 -0.0549,0.46756 0.3184,2.32345 0.6105,3.03478 0.96803,2.35739 2.43131,4.36352 3.08648,4.2315 0.7399,-0.14909 1.61138,-2.43445 2.10514,-5.52054 0.49039,-3.06505 0.58774,-4.07474 0.74568,-7.73424 0.0918,-2.12691 0.18265,-3.91174 0.20189,-3.96627 0.0193,-0.0546 0.33733,0.81013 0.70687,1.92149 0.76984,2.31525 1.17821,3.03635 1.71951,3.03635 0.97318,0 2.3797,-2.40735 2.95459,-5.057 0.31428,-1.44848 0.70784,-5.22809 0.64015,-6.14773 -0.36535,-4.96359 -1.06706,-9.63803 -1.92907,-12.8505 -0.16972,-0.63249 -0.30858,-1.48772 -0.30858,-1.90051 0,-0.41279 -0.0594,-0.80988 -0.13189,-0.88242 -0.0726,-0.0726 -0.15644,-0.37745 -0.18644,-0.67757 -0.15304,-1.53075 -0.53216,-3.759 -0.69131,-4.06306 -0.0992,-0.1894 -0.18029,-0.65264 -0.18029,-1.02944 0,-0.3768 -0.0892,-0.74024 -0.19831,-0.80765 -0.10907,-0.0674 -0.19832,-0.38502 -0.19832,-0.70581 0,-0.32078 -0.069,-0.58323 -0.15322,-0.58323 -0.0843,0 -0.26641,-0.51314 -0.40474,-1.14031 -0.13834,-0.62717 -0.3494,-1.58651 -0.46901,-2.13188 -0.11961,-0.54536 -0.34648,-1.28841 -0.50415,-1.65122 -1.2835,-2.95337 -1.50233,-3.85409 -1.57425,-6.47965 -0.0388,-1.41794 -0.16202,-3.15814 -0.27374,-3.86711 -0.29631,-1.88051 -0.60376,-3.41441 -0.77511,-3.86713 -0.0826,-0.21814 -0.2618,-1.02131 -0.39829,-1.78482 -0.13649,-0.76351 -0.32815,-1.59319 -0.42591,-1.84373 -0.0978,-0.25055 -0.17774,-0.58513 -0.17774,-0.74353 0,-0.24565 -1.01922,-2.47091 -1.72161,-3.75878 -0.11898,-0.21815 -0.42231,-0.8696 -0.67409,-1.44768 -0.41399,-0.95054 -1.74671,-2.41945 -2.19512,-2.41945 -0.43311,0 -7.70464,-6.95197 -7.70464,-7.36604 0,-0.0934 -0.072,-0.16988 -0.16014,-0.16988 -0.19104,0 -1.42637,-1.71593 -1.42637,-1.98129 0,-0.35899 2.77137,-0.91677 6.34605,-1.27725 2.67052,-0.26931 5.23877,-0.3696 10.51063,-0.41047 3.10857,-0.0241 6.6336,-0.14578 7.8334,-0.27039 1.1998,-0.12461 2.67228,-0.26441 3.27217,-0.31067 1.41109,-0.1088 2.24674,-0.23052 5.85026,-0.85211 2.27866,-0.39306 3.64757,-0.51258 5.85026,-0.51082 3.75751,0.003 4.71709,0.20468 6.78454,1.42583 0.92361,0.54554 2.07288,1.14291 2.55395,1.3275 0.48108,0.18459 1.18702,0.57225 1.56878,0.86148 0.89455,0.67772 2.91066,1.99819 3.05087,1.99819 0.0594,0 0.49054,0.27017 0.95796,0.60038 0.46742,0.33021 1.38531,0.97126 2.03974,1.42456 0.65444,0.4533 1.76995,1.28303 2.47893,1.84383 0.70896,0.56081 1.43728,1.10221 1.61847,1.2031 0.18119,0.1009 0.63556,0.46277 1.0097,0.80416 0.37415,0.34139 0.89521,0.7337 1.15792,0.87178 0.26271,0.1381 0.5522,0.3776 0.64332,0.53225 0.0911,0.15465 0.32367,0.34241 0.51678,0.41726 0.32283,0.12512 0.86459,0.57725 3.90569,3.25952 0.5874,0.5181 1.13419,0.94199 1.21507,0.94199 0.0809,0 0.57827,0.40159 1.10531,0.89241 0.52704,0.49083 1.0077,0.89242 1.06812,0.89242 0.0604,0 0.48934,0.33465 0.95313,0.74367 0.77583,0.68423 1.41825,1.17366 4.14245,3.15592 1.05313,0.76631 2.27219,1.34759 2.45105,1.16873 0.13044,-0.13044 -0.28041,-0.94414 -0.73103,-1.4478 -0.17342,-0.19385 -0.64002,-0.75312 -1.03686,-1.24281 -1.02274,-1.26204 -3.05909,-3.51094 -6.12029,-6.75914 -0.49083,-0.52082 -1.294,-1.38306 -1.78483,-1.91609 -0.49083,-0.53305 -1.75021,-1.89986 -2.79862,-3.03736 -1.04841,-1.13749 -2.13203,-2.33589 -2.40804,-2.66312 -0.27601,-0.32721 -0.97994,-1.09495 -1.56428,-1.70607 -0.58436,-0.61112 -1.37481,-1.49947 -1.75656,-1.97411 -0.38175,-0.47464 -0.98413,-1.1541 -1.33862,-1.50992 -0.35448,-0.35581 -0.64451,-0.73914 -0.64451,-0.85186 0,-0.11271 -0.0669,-0.20562 -0.14874,-0.20647 -0.16121,-10e-4 -0.64452,-0.94789 -0.64452,-1.26183 0,-0.10601 -0.14179,-0.34942 -0.31509,-0.54091 -0.17329,-0.19149 -0.38903,-0.64473 -0.47943,-1.00719 -0.35594,-1.42734 -0.96408,-3.3196 -1.27132,-3.95588 -0.86019,-1.78133 -4.05568,-4.20347 -6.56081,-4.97299 -2.35276,-0.72272 -2.87811,-0.79698 -4.99523,-0.70604 -1.71733,0.0737 -2.63745,0.239 -4.623,0.83021 -1.3634,0.40597 -2.5637,0.82079 -2.66732,0.92183 -0.10362,0.10104 -0.30872,0.18371 -0.45578,0.18371 -0.14707,0 -0.63681,0.17849 -1.08832,0.39663 -0.4515,0.21815 -0.9648,0.39663 -1.14064,0.39663 -0.17584,0 -0.40449,0.077 -0.50811,0.17105 -0.38339,0.34809 -4.22169,1.39706 -6.28839,1.71855 -2.34124,0.36419 -4.27836,0.29074 -5.98245,-0.22687 -2.33265,-0.70853 -4.03655,-1.35274 -4.8734,-1.84254 -0.49082,-0.28728 -1.22964,-0.69838 -1.64182,-0.91355 -0.41218,-0.21517 -1.17073,-0.77214 -1.68567,-1.23772 -0.51494,-0.46558 -1.49357,-1.22476 -2.17473,-1.68706 -0.68116,-0.4623 -1.23892,-0.90748 -1.23946,-0.98928 -5.4e-4,-0.0818 -0.10007,-0.14874 -0.22118,-0.14874 -0.30653,0 -2.15957,-1.21981 -2.15957,-1.4216 0,-0.0907 -0.0955,-0.16492 -0.21216,-0.16492 -0.11669,0 -0.60129,-0.26771 -1.07688,-0.59494 -0.47559,-0.32721 -0.90628,-0.59494 -0.95707,-0.59494 -0.18487,0 -4.00266,-2.45178 -4.06688,-2.61175 -0.0363,-0.0905 -0.23716,-0.16464 -0.44621,-0.16464 -0.20906,0 -0.3801,-0.069 -0.3801,-0.15322 0,-0.0843 -0.32255,-0.32691 -0.71677,-0.53922 -0.39422,-0.2123 -1.18296,-0.90116 -1.75275,-1.53081 -1.07892,-1.19223 -1.22596,-1.57587 -1.69429,-4.42027 -0.30468,-1.85046 -0.42285,-7.16506 -0.19843,-8.924124 0.11132,-0.87258 0.25598,-2.07734 0.32146,-2.67724 0.0655,-0.5999 0.19827,-1.24103 0.29509,-1.42474 0.0968,-0.1837 0.17604,-0.55771 0.17604,-0.83113 0,-0.27341 0.0892,-0.55227 0.19831,-0.61968 0.10907,-0.0674 0.19832,-0.32364 0.19832,-0.5694 0,-0.24575 0.17848,-0.81625 0.39662,-1.26775 0.21815,-0.45151 0.39663,-0.91225 0.39663,-1.02385 0,-0.11162 0.26773,-0.78747 0.59494,-1.5019 0.32722,-0.71444 0.59495,-1.38599 0.59495,-1.49232 0,-0.10635 0.0669,-0.19474 0.14873,-0.19643 0.0818,-0.001 0.37184,-0.47013 0.64452,-1.04096 0.6638,-1.38958 1.12757,-1.97976 2.21844,-2.82309 0.50134,-0.38757 1.46872,-1.88398 1.21793,-1.88398 -0.0696,0 0.0233,-0.16551 0.20637,-0.36782 0.23756,-0.2625 0.3222,-0.67415 0.29563,-1.43776 -0.0357,-1.02477 -0.13643,-1.27783 -1.08672,-2.72892 -0.2777,-0.42405 -0.42831,-0.98772 -0.44345,-1.65964 -0.0126,-0.55963 -0.0935,-1.06815 -0.17982,-1.13006 -0.0863,-0.0619 -0.31214,-0.61603 -0.50189,-1.23138 -0.18975,-0.61534 -0.47736,-1.22865 -0.63912,-1.36289 -0.16177,-0.13425 -0.29411,-0.50089 -0.29411,-0.81475 0,-0.31387 -0.0744,-0.57067 -0.16527,-0.57067 -0.0909,0 -0.16526,-0.11958 -0.16526,-0.26574 0,-0.14615 -0.20139,-0.70391 -0.44754,-1.23945 -0.24615,-0.53555 -0.53915,-1.19684 -0.65113,-1.46952 -0.39575,-0.96372 -1.18244,-2.36629 -1.96604,-3.50523 -0.31407,-0.45648 -0.57104,-0.92545 -0.57104,-1.04214 0,-0.11668 -0.07,-0.21216 -0.15556,-0.21216 -0.0855,0 -0.31178,-0.26447 -0.50273,-0.58772 -0.19095,-0.32325 -0.456,-0.70252 -0.58902,-0.84284 -0.133,-0.14031 -0.64301,-0.74593 -1.13335,-1.34583 -0.49034,-0.5999 -1.0928,-1.25376 -1.3388,-1.45301 -0.246,-0.19926 -0.55834,-0.46992 -0.6941,-0.60147 -1.0141,-0.98272 -2.14266,-1.38234 -2.45888,-0.87069 -0.21954,0.3552 -0.1104,3.75589 0.12819,3.99448 0.10994,0.10995 0.20027,0.38284 0.20072,0.60644 4.6e-4,0.2236 0.22356,0.84557 0.49579,1.38214 0.27222,0.53659 0.49495,1.08341 0.49495,1.21518 0,0.13177 0.13386,0.35068 0.29747,0.48646 0.16361,0.13578 0.29747,0.40073 0.29747,0.58876 0,0.46213 0.47572,1.36955 1.08507,2.06975 0.27579,0.31691 0.50144,0.64098 0.50144,0.72014 0,0.0792 0.28467,0.42225 0.63259,0.76241 0.47386,0.46328 0.5485,0.61848 0.29748,0.61848 -0.18432,0 -0.33513,-0.0784 -0.33513,-0.17426 0,-0.0958 -0.26772,-0.28515 -0.59494,-0.42068 -0.32722,-0.13554 -0.59494,-0.30561 -0.59494,-0.37793 0,-0.0723 -0.24541,-0.27675 -0.54536,-0.45426 -0.29995,-0.17752 -0.76847,-0.50859 -1.04115,-0.73572 -1.71735,-1.43046 -2.19288,-1.85265 -3.59485,-3.19163 -4.08266,-3.89922 -4.76444,-4.29561 -5.69133,-3.30897 -0.23716,0.25244 -0.4312,0.60413 -0.4312,0.78155 0,0.17741 -0.0863,0.3759 -0.19179,0.4411 -0.29912,0.18486 -0.096,2.73034 0.28139,3.52552 0.45819,0.96558 2.16214,2.60932 3.1613,3.04961 0.44799,0.19741 0.85915,0.4061 0.91369,0.46375 0.17698,0.18707 1.86295,0.94633 2.67724,1.20565 1.0594,0.33739 0.59421,0.4611 -0.77918,0.20722 -0.70432,-0.1302 -3.73067,-0.16098 -8.39126,-0.0853 -6.11872,0.0993 -7.34525,0.16671 -7.63597,0.4197 -0.24005,0.2089 -0.28565,0.37453 -0.14859,0.53968 0.30072,0.36235 2.8272,0.498 5.15532,0.27682 2.56894,-0.24407 5.18225,-0.23192 5.43946,0.0253 0.12467,0.12466 -0.18876,0.19387 -0.88815,0.19611 -1.66559,0.005 -5.76942,0.73598 -9.44877,1.68225 -1.74291,0.44826 -6.298627,2.15573 -6.69399,2.50891 -0.103616,0.0926 -0.34591,0.16829 -0.538427,0.16829 -0.192525,0 -0.732429,0.12435 -1.1998,0.27635 -0.467371,0.152 -1.652937,0.51779 -2.634592,0.81289 -3.968252,1.19288 -7.089434,2.34106 -10.073526,3.70573 -2.152478,0.98436 -2.078222,0.93685 -1.765839,1.12991 0.509899,0.31514 0.128912,1.07271 -0.752644,1.4966 -0.471148,0.22656 -0.954132,0.57331 -1.073301,0.77058 -0.220804,0.36553 -0.191595,0.4062 0.739227,1.02953 0.162881,0.10907 0.344328,0.3768 0.403226,0.59494 0.08916,0.33023 -0.126963,0.51283 -1.29092,1.09073 -2.981739,1.48042 -3.735312,1.89687 -4.077024,2.25314 -0.342574,0.35717 -0.333804,0.36643 0.269885,0.28526 0.456593,-0.0614 0.597182,-0.0142 0.524148,0.1762 -0.05494,0.14306 -0.211698,0.26011 -0.348443,0.26011 -0.495216,0 -2.485331,1.47052 -2.485331,1.83644 0,0.20209 -0.273864,0.51345 -0.61682,0.70128 -1.53143,0.83875 -1.863586,1.14209 -1.793175,1.63758 0.03793,0.26679 0.156338,0.59174 0.263169,0.72212 0.135957,0.16591 0.01402,0.40392 -0.406494,0.79325 -0.406037,0.37594 -0.619879,0.78118 -0.659799,1.25032 -0.05711,0.6712 -0.03455,0.69613 0.684616,0.75565 0.40902,0.0339 0.740418,0.12308 0.736438,0.19831 -0.0037,0.0752 -0.405572,0.38917 -0.892416,0.69766 -0.693805,0.43964 -0.885168,0.67759 -0.885168,1.10065 0,0.29685 -0.107094,0.646824 -0.237977,0.777714 -0.130891,0.13088 -0.168233,0.23798 -0.08299,0.23798 0.08525,0 -0.01926,0.29003 -0.232333,0.64452 -0.493717,0.82156 -0.704276,1.70818 -0.475459,2.00211 0.51364,0.6598 0.407626,1.13304 -0.368957,1.64695 -1.061001,0.70214 -1.681772,1.60779 -1.678691,2.44909 0.0022,0.65839 0.04077,0.69727 0.746212,0.75565 0.615344,0.0509 0.743154,0.13649 0.740643,0.49578 -0.0015,0.23883 -0.08581,0.56511 -0.18697,0.72506 -0.11737,0.18557 -0.104958,0.38597 0.03425,0.55377 0.159373,0.19203 0.156315,0.32487 -0.01132,0.49251 -0.126266,0.12627 -0.229574,0.42957 -0.229574,0.674 0,0.24443 -0.09533,0.50332 -0.211833,0.57533 -0.116507,0.072 -0.159103,0.26833 -0.09466,0.43628 0.135186,0.35228 -0.358051,1.18091 -1.007244,1.69213 -1.062793,0.83693 -1.316045,2.66635 -0.434422,3.13818 0.37338,0.19983 0.368755,0.22422 -0.130291,0.68671 -0.433837,0.40207 -0.481987,0.54574 -0.298082,0.88937 0.297804,0.55646 0.714147,0.68322 1.326935,0.40401 0.357842,-0.16304 0.576249,-0.17094 0.721118,-0.0261 0.144863,0.14487 0.128725,0.2078 -0.05329,0.2078 -0.155146,0 -0.222694,0.14691 -0.166442,0.362 0.07098,0.27147 -0.152912,0.50116 -0.895414,0.91854 -0.544535,0.3061 -1.323278,0.88975 -1.730529,1.297 -0.822185,0.82219 -0.09652,0.68846 -7.635625,1.407 -4.198657,0.40017 -4.924715,0.52224 -6.147735,1.03362 -0.54536,0.22802 -1.036191,0.4742 -1.090727,0.54704 -0.05457,0.0729 -0.322255,0.19973 -0.594942,0.28197 -1.122028,0.33837 -2.171899,0.92204 -2.705529,1.50412 -0.311655,0.33995 -0.923611,0.78423 -1.359899,0.9873 -0.96767,0.45037 -1.371548,0.77316 -1.544727,1.23456 -0.07256,0.19335 -0.290145,0.4014 -0.483494,0.46234 -2.389105,0.75293 -3.591603,1.62227 -3.34009,2.4147 0.07568,0.23846 -0.06101,0.58085 -0.379946,0.9517 -0.576488,0.67034 -0.611663,0.84579 -0.201159,1.00332 0.477505,0.18323 0.364872,0.35235 -0.877029,1.31677 -0.863311,0.67043 -1.148936,1.00983 -1.078023,1.28101 0.08222,0.31438 -0.08863,0.40461 -1.155689,0.61032 -0.688693,0.13277 -1.653754,0.32184 -2.144578,0.42014 -0.490832,0.0983 -1.160143,0.23041 -1.487359,0.29355 -1.39889,0.26993 -3.814979,0.34848 -4.561214,0.14829 -1.09847,-0.29467 -4.126868,-0.65785 -5.525878,-0.66268 -1.366698,-0.005 -1.991351,0.38014 -1.467398,0.9041 0.166014,0.16602 0.535729,0.36055 0.821586,0.4323 0.725622,0.18211 0.649267,0.48265 -0.124783,0.49114 -0.851199,0.009 -2.355212,0.38941 -4.962978,1.25421 -1.664368,0.55196 -2.355137,0.89656 -3.123348,1.55811 -0.542482,0.46718 -0.986371,0.92066 -0.986431,1.00772 -6e-5,0.0871 0.289935,0.28094 0.644419,0.43081 l 0.644523,0.2725 -0.594942,0.22095 c -0.891659,0.33113 -3.0962747,1.4716 -3.2150227,1.66316 -0.05719,0.0922 -6.15e-4,0.3607 0.125652,0.59664 0.217941,0.40723 0.347386,0.42634 2.5518957,0.37688 5.428072,-0.1218 10.293679,-0.39741 10.813127,-0.61252 0.307046,-0.12714 1.131255,-0.23117 1.831559,-0.23117 1.400966,0 2.410138,-0.19188 4.650311,-0.88417 1.975761,-0.61058 3.480224,-1.00918 5.552787,-1.47117 0.490831,-0.10941 1.695585,-0.37841 2.677241,-0.59777 4.343474,-0.97061 4.424934,-0.97269 4.723405,-0.12076 0.03823,0.10907 0.539844,0.17909 1.114735,0.15559 l 1.045261,-0.0427 -0.131753,0.70228 c -0.207381,1.10543 0.06349,1.26716 2.122392,1.26716 h 1.785327 l -0.114543,0.57271 c -0.182789,0.91396 0.313297,1.2139 1.651475,0.99848 0.599904,-0.0966 1.403073,-0.21771 1.784825,-0.26922 1.788535,-0.24125 2.369977,-0.38124 3.56965,-0.85943 0.708975,-0.2826 1.373818,-0.58702 1.477441,-0.67649 0.103616,-0.0895 0.309647,-0.16268 0.457837,-0.16268 0.14819,0 0.598854,-0.25476 1.001481,-0.56612 0.402626,-0.31137 1.044391,-0.6833 1.426151,-0.8265 0.381752,-0.1432 0.783337,-0.32584 0.892409,-0.40585 0.109072,-0.08 1.001488,-0.56757 1.983143,-1.08347 0.981649,-0.5159 2.364889,-1.2639 3.073864,-1.66223 0.708968,-0.39833 1.442933,-0.69288 1.631021,-0.65455 0.188095,0.0383 0.544356,0.42976 0.791702,0.86984 0.264525,0.47067 0.751324,0.95404 1.182148,1.17383 0.716875,0.36571 0.759037,0.36574 1.984695,0.001 2.472911,-0.73506 2.718286,-0.65943 0.906897,0.27953 -1.394071,0.72263 -1.568,0.88259 -1.430573,1.31559 0.06431,0.20274 0.0428,0.36862 -0.0479,0.36862 -0.242901,0 -0.826757,1.44556 -0.978628,2.42293 -0.08643,0.55626 -0.429684,1.24342 -0.994937,1.99177 -0.474642,0.62838 -0.862982,1.27095 -0.862982,1.42793 0,0.15696 -0.147755,0.36808 -0.328355,0.46915 -0.297325,0.1664 -0.28489,0.24697 0.131603,0.85269 0.252982,0.36791 0.627913,0.8575 0.833195,1.08798 0.205282,0.23047 0.346854,0.50976 0.314602,0.62063 -0.11366,0.39078 1.051219,1.26643 1.599825,1.20261 0.452763,-0.0527 0.513872,0.004 0.455049,0.42024 -0.04595,0.32514 0.08263,0.59548 0.396622,0.83405 0.401937,0.30538 0.431154,0.40728 0.21669,0.75569 -0.13634,0.2215 -0.247893,0.75776 -0.247893,1.19169 0,0.83598 0.356696,1.19955 1.176849,1.19955 0.30072,0 0.409665,0.12715 0.409665,0.4781 0,0.36472 0.199855,0.57716 0.842835,0.89585 1.059704,0.52524 1.994679,1.34142 1.834174,1.60113 -0.06731,0.10887 0.0067,0.19795 0.164027,0.19795 0.1575,0 0.432548,0.2231 0.611214,0.49578 0.228923,0.34937 0.503387,0.49578 0.929391,0.49578 0.865403,0 1.239008,0.42734 0.942508,1.07808 -0.127406,0.27964 -0.309243,0.50844 -0.404074,0.50844 -0.09483,0 0.02548,0.26772 0.267441,0.59494 0.311596,0.42145 0.606372,0.59494 1.010873,0.59494 0.47231,0 0.550172,0.0657 0.450476,0.37977 -0.345647,1.08904 0.640963,2.05408 2.100011,2.05408 0.644426,0 0.744788,0.0668 0.843764,0.5617 0.199084,0.99542 1.473559,1.89357 2.428052,1.71111 0.710774,-0.13588 1.068024,0.0113 1.068024,0.43999 0,0.49389 0.649837,1.01309 1.419795,1.13435 0.779177,0.12272 1.356594,0.40226 1.356594,0.65674 0,0.0996 0.200793,0.40672 0.446212,0.68244 0.245412,0.27571 0.669303,0.8237 0.94199,1.21773 0.27268,0.39404 0.759405,1.03105 1.081621,1.41559 0.455881,0.54407 0.57403,0.86258 0.532633,1.43591 -0.0446,0.61801 0.08944,0.91187 0.831742,1.82312 0.687951,0.84452 0.862772,1.20226 0.785383,1.60709 -0.115279,0.60305 0.984908,3.11289 1.37917,3.14627 0.622974,0.0528 1.423947,-0.0768 2.023469,-0.3273 l 0.653757,-0.27315 0.09778,0.86747 c 0.0718,0.63707 0.310756,1.12225 0.899619,1.82666 0.633872,0.75825 0.784978,1.0838 0.721365,1.55412 -0.0443,0.32721 -0.122226,1.15335 -0.173262,1.83585 -0.08766,1.17214 -0.05749,1.28205 0.544386,1.98314 0.350451,0.40822 0.700633,0.77081 0.77818,0.80574 0.165107,0.0744 0.03298,0.89751 -0.385065,2.39895 -0.325822,1.1702 -0.246147,2.65724 0.183358,3.42223 0.407056,0.72499 0.9987,1.35376 1.273831,1.35376 0.305536,0 1.704516,-0.79354 1.907296,-1.08187 0.0801,-0.11395 0.14706,0.12749 0.14873,0.53651 0.001,0.40902 -0.0738,0.74367 -0.16772,0.74367 -0.0949,0 -0.0963,0.33038 -0.003,0.74368 0.0922,0.40902 0.21159,0.97428 0.26544,1.25613 0.12097,0.6333 1.19403,2.0146 1.71732,2.21064 0.35211,0.13191 0.37707,0.2841 0.27644,1.68566 -0.0609,0.84737 -0.21058,2.13385 -0.33277,2.85885 -0.12219,0.725 -0.17749,1.94236 -0.12291,2.70525 0.0819,1.14514 0.1906,1.4856 0.62305,1.95197 0.28809,0.3107 0.52381,0.63274 0.52381,0.71566 0,0.0829 0.17972,0.33049 0.39939,0.55015 0.38454,0.38454 0.41956,0.38651 0.94199,0.0531 0.29843,-0.1905 0.65614,-0.49971 0.79491,-0.68712 0.13876,-0.18741 0.38418,-0.47262 0.54536,-0.6338 0.16118,-0.16118 0.29306,-0.35097 0.29306,-0.42175 0,-0.2912 2.43139,-4.26253 2.60968,-4.26253 0.21229,0 0.0307,0.77795 -0.2522,1.08081 -0.0968,0.10361 -0.17603,0.36539 -0.17603,0.58173 0,0.21634 -0.16491,0.89011 -0.36647,1.49727 -0.49499,1.49105 -0.82342,2.8869 -0.82342,3.49958 0,0.27829 -0.0841,0.66317 -0.18694,0.85529 -0.10282,0.19212 -0.20822,0.81567 -0.23423,1.38566 -0.026,0.56999 -0.1071,1.0733 -0.18019,1.11847 -0.0731,0.0452 -0.15042,1.08904 -0.17184,2.31969 -0.0214,1.23066 -0.10637,2.93476 -0.1888,3.7869 -0.0824,0.85213 -0.0782,1.59364 0.009,1.64779 0.0876,0.0541 0.1593,0.59248 0.1593,1.19627 0,1.41024 0.66698,3.60533 1.30432,4.29267 0.60006,0.64714 0.74613,0.65956 1.26069,0.10726 0.47183,-0.50646 1.99622,-3.56307 1.99622,-4.00272 0,-0.16783 0.0892,-0.36029 0.19831,-0.42771 0.10907,-0.0674 0.19831,-0.29698 0.19831,-0.51017 0,-0.37441 0.0717,-0.56744 0.56398,-1.51984 0.1261,-0.24394 0.22928,-0.60536 0.22928,-0.80318 0,-0.19781 0.071,-0.44444 0.15783,-0.54805 0.15385,-0.18365 0.30924,-0.63962 0.84141,-2.46901 0.14279,-0.49083 0.33333,-0.97719 0.42344,-1.08081 0.0901,-0.10362 0.16383,-0.42043 0.16383,-0.70401 0,-0.2836 0.0821,-0.6004 0.1824,-0.70402 0.16295,-0.16831 0.56572,-1.4149 1.56665,-4.84878 0.17486,-0.59989 0.3883,-1.12047 0.47432,-1.15683 0.086,-0.0363 0.15639,-0.32639 0.15639,-0.64451 0,-0.31813 0.0833,-0.57842 0.18515,-0.57842 0.10183,0 0.22232,-0.24542 0.26776,-0.54536 0.0769,-0.5076 0.0847,-0.50074 0.11232,0.0992 0.0163,0.35449 -0.0595,0.64453 -0.16859,0.64453 -0.10908,0 -0.19832,0.26771 -0.19832,0.59494 0,0.32721 -0.0707,0.59494 -0.15708,0.59494 -0.0864,0 -0.16653,0.24541 -0.17809,0.54536 -0.0115,0.29995 -0.16603,1.34854 -0.34328,2.33018 -0.17724,0.98166 -0.40479,2.60806 -0.50568,3.61423 -0.10088,1.00616 -0.23026,2.1663 -0.28753,2.57808 -0.0973,0.69999 -0.29471,5.07071 -0.37635,8.33435 -0.0198,0.79087 0.031,1.43787 0.11276,1.43778 0.0818,-9e-5 0.14815,0.37911 0.14743,0.84267 -0.003,2.1259 0.77721,6.0352 1.41404,7.08239 0.38086,0.62627 0.51708,0.69486 0.89477,0.4505 z m -0.0632,-30.42575 c 0.0633,-0.1582 0.1103,-0.11121 0.11981,0.11982 0.009,0.20905 -0.0382,0.32618 -0.10416,0.26028 -0.0659,-0.0659 -0.0729,-0.23694 -0.0157,-0.3801 z M 29.589744,140.84652 c 0.05569,-0.0557 1.520705,-0.46213 3.255656,-0.90327 2.182992,-0.55507 3.360912,-0.76394 3.824813,-0.67824 0.427564,0.079 0.6015,0.1927 0.480263,0.31394 -0.170114,0.17011 -4.637936,1.02546 -6.405934,1.2264 -0.381752,0.0434 -0.820521,0.0932 -0.975045,0.11062 -0.154516,0.0175 -0.235406,-0.0138 -0.179753,-0.0695 z m -8.707188,-2.20008 c 0.06588,-0.0659 0.23695,-0.0729 0.380103,-0.0157 0.158204,0.0633 0.111216,0.1103 -0.119812,0.11981 -0.209053,0.009 -0.326182,-0.0382 -0.260291,-0.10415 z"
       id="path2161"
       inkscape:export-filename="/home/matan/Matan/Repos/controls_challenge/ukf_explanation_video/Stork_silhouette.png"
       inkscape:export-xdpi="96"
       inkscape:export-ydpi="96" />
  </g>
</svg>
